# xmcd
#
# Track frame offsets:
#	150
#	4346
#	20968
#	35074
#	48168
#	62618
#	84309
#	97648
#	118936
#	129419
#	143362
#	157514
#	182517
#	199768
#	213662
#	226523
#	233804
#	251462
#	270491
#
# Disc length: 3832 seconds
#
# Revision: 1
# Processed by: cddbd v1.5.2PL0 Copyright (c) Steve Scherf et al.
# Submitted via: audiograbber 1.83.01
#
DISCID=ea0ef613
DTITLE=Los Gigantes and The Texas Torpedos - Highway Patrol
DYEAR=2008
DGENRE=Country
TTITLE0=Intro (Carrizo Springs)
TTITLE1=Flor sin retono
TTITLE2=Highway Patrol
TTITLE3=Buscando Mi Amor
TTITLE4=BlackJack County Chain
TTITLE5=El pescador
TTITLE6=Walking After Midnight
TTITLE7=Drinking My Dinner
TTITLE8=La reina del dolor
TTITLE9=Cowboy Man
TTITLE10=Torpedo Run
TTITLE11=Which Way Does That Ole Pony Run ?
TTITLE12=Desperado
TTITLE13=Cancion Del Mariachi
TTITLE14=Steel Guitar Rag
TTITLE15=About Life in Prison
TTITLE16=Folsom Prison Blues
TTITLE17=Volver, Volver
TTITLE18=That's How I Got To Memphis
EXTD=www.los-gigantes.de - www.myspace.com/losgigantesgroherhiss
EXTT0=
EXTT1=
EXTT2=
EXTT3=
EXTT4=
EXTT5=
EXTT6=
EXTT7=
EXTT8=
EXTT9=
EXTT10=
EXTT11=
EXTT12=
EXTT13=
EXTT14=
EXTT15=
EXTT16=
EXTT17=
EXTT18=
PLAYORDER=
